<?xml version="1.0" encoding="UTF-8" standalone="no"?>
<!DOCTYPE svg PUBLIC "-//W3C//DTD SVG 1.1//EN"
 "http://www.w3.org/Graphics/SVG/1.1/DTD/svg11.dtd">
<!-- Generated by graphviz version 2.26.3 (20100126.1600)
 -->
<!-- Title: packages_pyspread Pages: 1 -->
<svg width="2589pt" height="692pt"
 viewBox="0.00 0.00 2589.20 692.00" xmlns="http://www.w3.org/2000/svg" xmlns:xlink="http://www.w3.org/1999/xlink">
<g id="graph1" class="graph" transform="scale(1 1) rotate(0) translate(4 688)">
<title>packages_pyspread</title>
<polygon fill="white" stroke="white" points="-4,5 -4,-688 2586.2,-688 2586.2,5 -4,5"/>
<!-- 3 -->
<g id="node1" class="node"><title>3</title>
<polygon fill="none" stroke="black" points="2116.48,-180 1988.48,-180 1988.48,-144 2116.48,-144 2116.48,-180"/>
<text text-anchor="middle" x="2052.48" y="-157.9" font-family="Times Roman,serif" font-size="14.00">src.gui._toolbars</text>
</g>
<!-- 23 -->
<g id="node5" class="node"><title>23</title>
<polygon fill="none" stroke="black" points="1263.48,-684 1171.48,-684 1171.48,-648 1263.48,-648 1263.48,-684"/>
<text text-anchor="middle" x="1217.48" y="-661.9" font-family="Times Roman,serif" font-size="14.00">src.sysvars</text>
</g>
<!-- 3&#45;&gt;23 -->
<g id="edge8" class="edge"><title>3&#45;&gt;23</title>
<path fill="none" stroke="black" d="M2116.75,-176.448C2248.41,-207.911 2536.48,-287.134 2536.48,-378 2536.48,-378 2536.48,-378 2536.48,-522 2536.48,-616.646 2435.36,-589.306 2343.48,-612 2239.26,-637.74 1486.58,-659.024 1273.53,-664.583"/>
<polygon fill="black" stroke="black" points="1263.51,-664.844 1273.39,-660.085 1268.5,-664.714 1273.5,-664.584 1273.5,-664.584 1273.5,-664.584 1268.5,-664.714 1273.62,-669.082 1263.51,-664.844 1263.51,-664.844"/>
</g>
<!-- 36 -->
<g id="node8" class="node"><title>36</title>
<polygon fill="none" stroke="black" points="2334.48,-612 2234.48,-612 2234.48,-576 2334.48,-576 2334.48,-612"/>
<text text-anchor="middle" x="2284.48" y="-589.9" font-family="Times Roman,serif" font-size="14.00">src.gui.icons</text>
</g>
<!-- 3&#45;&gt;36 -->
<g id="edge10" class="edge"><title>3&#45;&gt;36</title>
<path fill="none" stroke="black" d="M2097.42,-180.089C2118.33,-189.435 2143.04,-201.849 2163.48,-216 2235.36,-265.765 2249.04,-287.224 2297.48,-360 2343.23,-428.737 2376.76,-464.432 2343.48,-540 2338.49,-551.318 2329.84,-561.297 2320.67,-569.498"/>
<polygon fill="black" stroke="black" points="2312.91,-575.96 2317.71,-566.102 2316.75,-572.76 2320.59,-569.559 2320.59,-569.559 2320.59,-569.559 2316.75,-572.76 2323.47,-573.016 2312.91,-575.96 2312.91,-575.96"/>
</g>
<!-- 63 -->
<g id="node16" class="node"><title>63</title>
<polygon fill="none" stroke="black" points="1924.48,-540 1796.48,-540 1796.48,-504 1924.48,-504 1924.48,-540"/>
<text text-anchor="middle" x="1860.48" y="-517.9" font-family="Times Roman,serif" font-size="14.00">src.gui._widgets</text>
</g>
<!-- 3&#45;&gt;63 -->
<g id="edge2" class="edge"><title>3&#45;&gt;63</title>
<path fill="none" stroke="black" d="M2048.3,-180.062C2035.92,-230.407 1995.43,-374.729 1918.48,-468 1909.98,-478.3 1899.59,-488.551 1889.96,-497.311"/>
<polygon fill="black" stroke="black" points="1882.46,-503.988 1886.94,-493.979 1886.19,-500.665 1889.93,-497.342 1889.93,-497.342 1889.93,-497.342 1886.19,-500.665 1892.92,-500.704 1882.46,-503.988 1882.46,-503.988"/>
</g>
<!-- 95 -->
<g id="node19" class="node"><title>95</title>
<polygon fill="none" stroke="black" points="2216.48,-612 2096.48,-612 2096.48,-576 2216.48,-576 2216.48,-612"/>
<text text-anchor="middle" x="2156.48" y="-589.9" font-family="Times Roman,serif" font-size="14.00">src.gui._events</text>
</g>
<!-- 3&#45;&gt;95 -->
<g id="edge6" class="edge"><title>3&#45;&gt;95</title>
<path fill="none" stroke="black" d="M2079.72,-180.075C2135.36,-218.707 2261.34,-315.368 2315.48,-432 2335.73,-475.629 2350.74,-501.081 2322.48,-540 2316.37,-548.417 2269.06,-563.339 2226.5,-575.367"/>
<polygon fill="black" stroke="black" points="2216.67,-578.121 2225.08,-571.092 2221.48,-576.773 2226.3,-575.425 2226.3,-575.425 2226.3,-575.425 2221.48,-576.773 2227.51,-579.758 2216.67,-578.121 2216.67,-578.121"/>
</g>
<!-- 112 -->
<g id="node24" class="node"><title>112</title>
<polygon fill="none" stroke="black" points="1276.48,-612 1184.48,-612 1184.48,-576 1276.48,-576 1276.48,-612"/>
<text text-anchor="middle" x="1230.48" y="-589.9" font-family="Times Roman,serif" font-size="14.00">src.lib.i18n</text>
</g>
<!-- 3&#45;&gt;112 -->
<g id="edge4" class="edge"><title>3&#45;&gt;112</title>
<path fill="none" stroke="black" d="M2038.95,-180.017C1984.56,-252.209 1782.82,-517.745 1741.48,-540 1721.67,-550.665 1415.6,-578.067 1286.86,-589.195"/>
<polygon fill="black" stroke="black" points="1276.8,-590.063 1286.38,-584.72 1281.78,-589.633 1286.76,-589.204 1286.76,-589.204 1286.76,-589.204 1281.78,-589.633 1287.15,-593.687 1276.8,-590.063 1276.8,-590.063"/>
</g>
<!-- 150 -->
<g id="node34" class="node"><title>150</title>
<polygon fill="none" stroke="black" points="528.478,-612 448.478,-612 448.478,-576 528.478,-576 528.478,-612"/>
<text text-anchor="middle" x="488.478" y="-589.9" font-family="Times Roman,serif" font-size="14.00">src.config</text>
</g>
<!-- 3&#45;&gt;150 -->
<g id="edge12" class="edge"><title>3&#45;&gt;150</title>
<path fill="none" stroke="black" d="M1988.29,-164.672C1903.75,-168.191 1750.47,-174.567 1619.48,-180 1232.81,-196.037 1131.88,-156.528 749.478,-216 719.541,-220.656 514.889,-277.475 486.478,-288 451.431,-300.984 445.099,-309.917 410.478,-324 364.781,-342.589 336.329,-321.503 305.478,-360 255.173,-422.774 266.45,-484.286 324.478,-540 355.18,-569.477 402.274,-582.867 438.133,-588.948"/>
<polygon fill="black" stroke="black" points="448.397,-590.544 437.824,-593.454 443.456,-589.775 438.515,-589.007 438.515,-589.007 438.515,-589.007 443.456,-589.775 439.207,-584.561 448.397,-590.544 448.397,-590.544"/>
</g>
<!-- 9 -->
<g id="node2" class="node"><title>9</title>
<polygon fill="none" stroke="black" points="1430.48,-468 1308.48,-468 1308.48,-432 1430.48,-432 1430.48,-468"/>
<text text-anchor="middle" x="1369.48" y="-445.9" font-family="Times Roman,serif" font-size="14.00">src.lib.selection</text>
</g>
<!-- 11 -->
<g id="node3" class="node"><title>11</title>
<polygon fill="none" stroke="black" points="1610.48,-180 1510.48,-180 1510.48,-144 1610.48,-144 1610.48,-180"/>
<text text-anchor="middle" x="1560.48" y="-157.9" font-family="Times Roman,serif" font-size="14.00">src.gui._grid</text>
</g>
<!-- 15 -->
<g id="node4" class="node"><title>15</title>
<polygon fill="none" stroke="black" points="1194.48,-396 1066.48,-396 1066.48,-360 1194.48,-360 1194.48,-396"/>
<text text-anchor="middle" x="1130.48" y="-373.9" font-family="Times Roman,serif" font-size="14.00">src.model.model</text>
</g>
<!-- 11&#45;&gt;15 -->
<g id="edge32" class="edge"><title>11&#45;&gt;15</title>
<path fill="none" stroke="black" d="M1524.56,-180.045C1446.46,-219.274 1261.36,-312.254 1175.57,-355.348"/>
<polygon fill="black" stroke="black" points="1166.6,-359.855 1173.52,-351.345 1171.07,-357.611 1175.54,-355.366 1175.54,-355.366 1175.54,-355.366 1171.07,-357.611 1177.56,-359.387 1166.6,-359.855 1166.6,-359.855"/>
</g>
<!-- 24 -->
<g id="node6" class="node"><title>24</title>
<polygon fill="none" stroke="black" points="1664.48,-540 1568.48,-540 1568.48,-504 1664.48,-504 1664.48,-540"/>
<text text-anchor="middle" x="1616.48" y="-517.9" font-family="Times Roman,serif" font-size="14.00">src.lib.xrect</text>
</g>
<!-- 11&#45;&gt;24 -->
<g id="edge14" class="edge"><title>11&#45;&gt;24</title>
<path fill="none" stroke="black" d="M1569.35,-180.357C1574.28,-190.741 1580.41,-204.01 1585.48,-216 1618.83,-294.919 1603.93,-326.824 1654.48,-396 1669.59,-416.68 1688.38,-408.915 1699.48,-432 1706.41,-446.421 1707.11,-453.936 1699.48,-468 1692.68,-480.525 1681.59,-490.6 1669.69,-498.498"/>
<polygon fill="black" stroke="black" points="1660.94,-503.869 1667.11,-494.805 1665.2,-501.255 1669.46,-498.64 1669.46,-498.64 1669.46,-498.64 1665.2,-501.255 1671.81,-502.476 1660.94,-503.869 1660.94,-503.869"/>
</g>
<!-- 42 -->
<g id="node10" class="node"><title>42</title>
<polygon fill="none" stroke="black" points="697.478,-396 527.478,-396 527.478,-360 697.478,-360 697.478,-396"/>
<text text-anchor="middle" x="612.478" y="-373.9" font-family="Times Roman,serif" font-size="14.00">src.gui._gui_interfaces</text>
</g>
<!-- 11&#45;&gt;42 -->
<g id="edge22" class="edge"><title>11&#45;&gt;42</title>
<path fill="none" stroke="black" d="M1510.24,-163.074C1343.81,-166.943 817.221,-181.789 749.478,-216 690.677,-245.696 647.17,-312.965 626.287,-350.816"/>
<polygon fill="black" stroke="black" points="621.469,-359.765 622.247,-348.826 623.84,-355.362 626.21,-350.959 626.21,-350.959 626.21,-350.959 623.84,-355.362 630.172,-353.093 621.469,-359.765 621.469,-359.765"/>
</g>
<!-- 46 -->
<g id="node11" class="node"><title>46</title>
<polygon fill="none" stroke="black" points="942.478,-252 758.478,-252 758.478,-216 942.478,-216 942.478,-252"/>
<text text-anchor="middle" x="850.478" y="-229.9" font-family="Times Roman,serif" font-size="14.00">src.actions._grid_actions</text>
</g>
<!-- 11&#45;&gt;46 -->
<g id="edge30" class="edge"><title>11&#45;&gt;46</title>
<path fill="none" stroke="black" d="M1510.27,-167.092C1394.54,-178.827 1107.16,-207.97 952.643,-223.64"/>
<polygon fill="black" stroke="black" points="942.66,-224.652 952.155,-219.166 947.635,-224.148 952.609,-223.643 952.609,-223.643 952.609,-223.643 947.635,-224.148 953.063,-228.12 942.66,-224.652 942.66,-224.652"/>
</g>
<!-- 11&#45;&gt;95 -->
<g id="edge18" class="edge"><title>11&#45;&gt;95</title>
<path fill="none" stroke="black" d="M1610.79,-164.052C1742.59,-172.441 2098.4,-215.103 2253.48,-432 2281.6,-471.328 2292.05,-498.967 2266.48,-540 2257.07,-555.094 2242.08,-566.088 2226.15,-574.051"/>
<polygon fill="black" stroke="black" points="2216.7,-578.397 2223.91,-570.13 2221.25,-576.308 2225.79,-574.218 2225.79,-574.218 2225.79,-574.218 2221.25,-576.308 2227.67,-578.307 2216.7,-578.397 2216.7,-578.397"/>
</g>
<!-- 106 -->
<g id="node21" class="node"><title>106</title>
<polygon fill="none" stroke="black" points="401.478,-324 259.478,-324 259.478,-288 401.478,-288 401.478,-324"/>
<text text-anchor="middle" x="330.478" y="-301.9" font-family="Times Roman,serif" font-size="14.00">src.gui._grid_table</text>
</g>
<!-- 11&#45;&gt;106 -->
<g id="edge24" class="edge"><title>11&#45;&gt;106</title>
<path fill="none" stroke="black" d="M1510.48,-163.763C1348.23,-169.684 837.497,-189.963 674.478,-216 575.705,-231.776 464.157,-263.636 395.575,-284.9"/>
<polygon fill="black" stroke="black" points="385.775,-287.957 393.981,-280.684 390.548,-286.468 395.321,-284.979 395.321,-284.979 395.321,-284.979 390.548,-286.468 396.661,-289.275 385.775,-287.957 385.775,-287.957"/>
</g>
<!-- 11&#45;&gt;112 -->
<g id="edge16" class="edge"><title>11&#45;&gt;112</title>
<path fill="none" stroke="black" d="M1560.15,-180.115C1558.14,-233.17 1544.65,-389.408 1456.48,-468 1411.41,-508.178 1378.08,-474.351 1325.48,-504 1296.3,-520.447 1269.22,-547.8 1251.5,-568.042"/>
<polygon fill="black" stroke="black" points="1244.96,-575.685 1248.04,-565.163 1248.21,-571.887 1251.46,-568.09 1251.46,-568.09 1251.46,-568.09 1248.21,-571.887 1254.88,-571.017 1244.96,-575.685 1244.96,-575.685"/>
</g>
<!-- 115 -->
<g id="node26" class="node"><title>115</title>
<polygon fill="none" stroke="black" points="1690.48,-468 1524.48,-468 1524.48,-432 1690.48,-432 1690.48,-468"/>
<text text-anchor="middle" x="1607.48" y="-445.9" font-family="Times Roman,serif" font-size="14.00">src.gui._grid_renderer</text>
</g>
<!-- 11&#45;&gt;115 -->
<g id="edge26" class="edge"><title>11&#45;&gt;115</title>
<path fill="none" stroke="black" d="M1563.42,-180.016C1571.36,-228.706 1593.31,-363.204 1602.9,-421.943"/>
<polygon fill="black" stroke="black" points="1604.54,-431.991 1598.49,-422.847 1603.73,-427.056 1602.93,-422.122 1602.93,-422.122 1602.93,-422.122 1603.73,-427.056 1607.37,-421.397 1604.54,-431.991 1604.54,-431.991"/>
</g>
<!-- 123 -->
<g id="node30" class="node"><title>123</title>
<polygon fill="none" stroke="black" points="1876.48,-324 1734.48,-324 1734.48,-288 1876.48,-288 1876.48,-324"/>
<text text-anchor="middle" x="1805.48" y="-301.9" font-family="Times Roman,serif" font-size="14.00">src.gui._menubars</text>
</g>
<!-- 11&#45;&gt;123 -->
<g id="edge28" class="edge"><title>11&#45;&gt;123</title>
<path fill="none" stroke="black" d="M1609.57,-180.045C1632.48,-189.381 1659.67,-201.799 1682.48,-216 1703.64,-229.173 1705.57,-237.008 1725.48,-252 1739.2,-262.335 1754.77,-273.055 1768.5,-282.192"/>
<polygon fill="black" stroke="black" points="1777.22,-287.948 1766.39,-286.194 1773.04,-285.194 1768.87,-282.439 1768.87,-282.439 1768.87,-282.439 1773.04,-285.194 1771.35,-278.683 1777.22,-287.948 1777.22,-287.948"/>
</g>
<!-- 127 -->
<g id="node31" class="node"><title>127</title>
<polygon fill="none" stroke="black" points="2128.48,-468 1970.48,-468 1970.48,-432 2128.48,-432 2128.48,-468"/>
<text text-anchor="middle" x="2049.48" y="-445.9" font-family="Times Roman,serif" font-size="14.00">src.gui._chart_dialog</text>
</g>
<!-- 11&#45;&gt;127 -->
<g id="edge20" class="edge"><title>11&#45;&gt;127</title>
<path fill="none" stroke="black" d="M1594.33,-180.01C1610.48,-189.504 1629.5,-202.066 1644.48,-216 1688.41,-256.868 1677.68,-287.732 1725.48,-324 1795.71,-377.288 1891.27,-410.786 1960.4,-429.73"/>
<polygon fill="black" stroke="black" points="1970.4,-432.419 1959.58,-434.168 1965.57,-431.121 1960.75,-429.822 1960.75,-429.822 1960.75,-429.822 1965.57,-431.121 1961.91,-425.477 1970.4,-432.419 1970.4,-432.419"/>
</g>
<!-- 15&#45;&gt;9 -->
<g id="edge40" class="edge"><title>15&#45;&gt;9</title>
<path fill="none" stroke="black" d="M1190.48,-396.076C1223.72,-406.09 1265.21,-418.588 1299.87,-429.03"/>
<polygon fill="black" stroke="black" points="1309.45,-431.917 1298.58,-433.341 1304.67,-430.475 1299.88,-429.032 1299.88,-429.032 1299.88,-429.032 1304.67,-430.475 1301.18,-424.724 1309.45,-431.917 1309.45,-431.917"/>
</g>
<!-- 113 -->
<g id="node25" class="node"><title>113</title>
<polygon fill="none" stroke="black" points="1438.48,-540 1334.48,-540 1334.48,-504 1438.48,-504 1438.48,-540"/>
<text text-anchor="middle" x="1386.48" y="-517.9" font-family="Times Roman,serif" font-size="14.00">src.lib.charts</text>
</g>
<!-- 15&#45;&gt;113 -->
<g id="edge34" class="edge"><title>15&#45;&gt;113</title>
<path fill="none" stroke="black" d="M1128,-396.161C1126.34,-416.451 1127.13,-448.945 1145.48,-468 1200.56,-525.198 1243.25,-485.544 1320.48,-504 1321.75,-504.303 1323.03,-504.613 1324.31,-504.928"/>
<polygon fill="black" stroke="black" points="1334.32,-507.447 1323.52,-509.369 1329.47,-506.226 1324.62,-505.006 1324.62,-505.006 1324.62,-505.006 1329.47,-506.226 1325.72,-500.642 1334.32,-507.447 1334.32,-507.447"/>
</g>
<!-- 147 -->
<g id="node32" class="node"><title>147</title>
<polygon fill="none" stroke="black" points="536.478,-468 402.478,-468 402.478,-432 536.478,-432 536.478,-468"/>
<text text-anchor="middle" x="469.478" y="-445.9" font-family="Times Roman,serif" font-size="14.00">src.model.unredo</text>
</g>
<!-- 15&#45;&gt;147 -->
<g id="edge36" class="edge"><title>15&#45;&gt;147</title>
<path fill="none" stroke="black" d="M1066.21,-381.335C958.876,-387.495 736.553,-402.782 550.478,-432 549.198,-432.201 547.907,-432.41 546.608,-432.627"/>
<polygon fill="black" stroke="black" points="536.538,-434.416 545.597,-428.236 541.461,-433.541 546.384,-432.667 546.384,-432.667 546.384,-432.667 541.461,-433.541 547.171,-437.097 536.538,-434.416 536.538,-434.416"/>
</g>
<!-- 149 -->
<g id="node33" class="node"><title>149</title>
<polygon fill="none" stroke="black" points="1290.48,-468 1154.48,-468 1154.48,-432 1290.48,-432 1290.48,-468"/>
<text text-anchor="middle" x="1222.48" y="-445.9" font-family="Times Roman,serif" font-size="14.00">src.lib.typechecks</text>
</g>
<!-- 15&#45;&gt;149 -->
<g id="edge38" class="edge"><title>15&#45;&gt;149</title>
<path fill="none" stroke="black" d="M1153.69,-396.169C1165.03,-405.037 1178.82,-415.836 1191.08,-425.428"/>
<polygon fill="black" stroke="black" points="1199.27,-431.837 1188.62,-429.218 1195.33,-428.756 1191.4,-425.674 1191.4,-425.674 1191.4,-425.674 1195.33,-428.756 1194.17,-422.13 1199.27,-431.837 1199.27,-431.837"/>
</g>
<!-- 15&#45;&gt;150 -->
<g id="edge42" class="edge"><title>15&#45;&gt;150</title>
<path fill="none" stroke="black" d="M1066.1,-379.1C947.02,-382.064 697.544,-392.889 621.478,-432 563.601,-461.759 521.68,-529.003 501.668,-566.833"/>
<polygon fill="black" stroke="black" points="497.056,-575.777 497.64,-564.826 499.347,-571.333 501.639,-566.889 501.639,-566.889 501.639,-566.889 499.347,-571.333 505.639,-568.951 497.056,-575.777 497.056,-575.777"/>
</g>
<!-- 28 -->
<g id="node7" class="node"><title>28</title>
<polygon fill="none" stroke="black" points="1098.48,-468 844.478,-468 844.478,-432 1098.48,-432 1098.48,-468"/>
<text text-anchor="middle" x="971.478" y="-445.9" font-family="Times Roman,serif" font-size="14.00">src.actions._main_window_actions</text>
</g>
<!-- 28&#45;&gt;23 -->
<g id="edge54" class="edge"><title>28&#45;&gt;23</title>
<path fill="none" stroke="black" d="M940.983,-468.224C928.796,-477.294 916.101,-489.449 909.478,-504 902.85,-518.563 900.56,-526.716 909.478,-540 965.723,-623.779 1088.59,-651.89 1160.99,-661.296"/>
<polygon fill="black" stroke="black" points="1171.29,-662.552 1160.82,-665.809 1166.33,-661.947 1161.37,-661.342 1161.37,-661.342 1161.37,-661.342 1166.33,-661.947 1161.91,-656.875 1171.29,-662.552 1171.29,-662.552"/>
</g>
<!-- 28&#45;&gt;95 -->
<g id="edge44" class="edge"><title>28&#45;&gt;95</title>
<path fill="none" stroke="black" d="M1056.39,-468.052C1101.21,-477.948 1157.02,-490.853 1206.48,-504 1259.88,-518.196 1271.11,-530.144 1325.48,-540 1470.8,-566.343 1913.44,-585.032 2086.28,-591.506"/>
<polygon fill="black" stroke="black" points="2096.29,-591.878 2086.13,-596.003 2091.29,-591.692 2086.29,-591.506 2086.29,-591.506 2086.29,-591.506 2091.29,-591.692 2086.46,-587.009 2096.29,-591.878 2096.29,-591.878"/>
</g>
<!-- 108 -->
<g id="node22" class="node"><title>108</title>
<polygon fill="none" stroke="black" points="1164.48,-540 1034.48,-540 1034.48,-504 1164.48,-504 1164.48,-540"/>
<text text-anchor="middle" x="1099.48" y="-517.9" font-family="Times Roman,serif" font-size="14.00">src.gui._printout</text>
</g>
<!-- 28&#45;&gt;108 -->
<g id="edge52" class="edge"><title>28&#45;&gt;108</title>
<path fill="none" stroke="black" d="M1003.78,-468.169C1020.3,-477.463 1040.6,-488.879 1058.24,-498.803"/>
<polygon fill="black" stroke="black" points="1067.19,-503.837 1056.27,-502.857 1062.83,-501.386 1058.47,-498.935 1058.47,-498.935 1058.47,-498.935 1062.83,-501.386 1060.68,-495.012 1067.19,-503.837 1067.19,-503.837"/>
</g>
<!-- 28&#45;&gt;113 -->
<g id="edge50" class="edge"><title>28&#45;&gt;113</title>
<path fill="none" stroke="black" d="M1098.51,-466.145C1164.97,-475.475 1247.47,-488.448 1320.48,-504 1321.75,-504.271 1323.04,-504.553 1324.33,-504.842"/>
<polygon fill="black" stroke="black" points="1334.37,-507.206 1323.61,-509.294 1329.51,-506.06 1324.64,-504.914 1324.64,-504.914 1324.64,-504.914 1329.51,-506.06 1325.67,-500.534 1334.37,-507.206 1334.37,-507.206"/>
</g>
<!-- 28&#45;&gt;150 -->
<g id="edge48" class="edge"><title>28&#45;&gt;150</title>
<path fill="none" stroke="black" d="M910.795,-468.092C814.209,-496.888 627.336,-552.601 538.166,-579.186"/>
<polygon fill="black" stroke="black" points="528.559,-582.051 536.856,-574.881 533.351,-580.622 538.142,-579.193 538.142,-579.193 538.142,-579.193 533.351,-580.622 539.428,-583.506 528.559,-582.051 528.559,-582.051"/>
</g>
<!-- 154 -->
<g id="node36" class="node"><title>154</title>
<polygon fill="none" stroke="black" points="1016.48,-540 918.478,-540 918.478,-504 1016.48,-504 1016.48,-540"/>
<text text-anchor="middle" x="967.478" y="-517.9" font-family="Times Roman,serif" font-size="14.00">src.lib.__csv</text>
</g>
<!-- 28&#45;&gt;154 -->
<g id="edge46" class="edge"><title>28&#45;&gt;154</title>
<path fill="none" stroke="black" d="M970.469,-468.169C970.041,-475.869 969.533,-485.026 969.057,-493.583"/>
<polygon fill="black" stroke="black" points="968.501,-503.587 964.563,-493.352 968.779,-498.594 969.056,-493.602 969.056,-493.602 969.056,-493.602 968.779,-498.594 973.549,-493.852 968.501,-503.587 968.501,-503.587"/>
</g>
<!-- 36&#45;&gt;23 -->
<g id="edge56" class="edge"><title>36&#45;&gt;23</title>
<path fill="none" stroke="black" d="M2234.47,-610.16C2231.44,-610.856 2228.43,-611.478 2225.48,-612 2040.42,-644.685 1458,-660.505 1273.87,-664.778"/>
<polygon fill="black" stroke="black" points="1263.6,-665.014 1273.49,-660.285 1268.6,-664.899 1273.6,-664.784 1273.6,-664.784 1273.6,-664.784 1268.6,-664.899 1273.7,-669.283 1263.6,-665.014 1263.6,-665.014"/>
</g>
<!-- 40 -->
<g id="node9" class="node"><title>40</title>
<polygon fill="none" stroke="black" points="1476.48,-396 1262.48,-396 1262.48,-360 1476.48,-360 1476.48,-396"/>
<text text-anchor="middle" x="1369.48" y="-373.9" font-family="Times Roman,serif" font-size="14.00">src.actions._grid_cell_actions</text>
</g>
<!-- 40&#45;&gt;9 -->
<g id="edge60" class="edge"><title>40&#45;&gt;9</title>
<path fill="none" stroke="black" d="M1369.48,-396.169C1369.48,-403.869 1369.48,-413.026 1369.48,-421.583"/>
<polygon fill="black" stroke="black" points="1369.48,-431.587 1364.98,-421.587 1369.48,-426.587 1369.48,-421.587 1369.48,-421.587 1369.48,-421.587 1369.48,-426.587 1373.98,-421.587 1369.48,-431.587 1369.48,-431.587"/>
</g>
<!-- 40&#45;&gt;28 -->
<g id="edge62" class="edge"><title>40&#45;&gt;28</title>
<path fill="none" stroke="black" d="M1269.82,-396.029C1212.46,-406.405 1140.3,-419.459 1081.32,-430.13"/>
<polygon fill="black" stroke="black" points="1071.22,-431.957 1080.26,-425.748 1076.14,-431.067 1081.06,-430.177 1081.06,-430.177 1081.06,-430.177 1076.14,-431.067 1081.86,-434.605 1071.22,-431.957 1071.22,-431.957"/>
</g>
<!-- 40&#45;&gt;95 -->
<g id="edge64" class="edge"><title>40&#45;&gt;95</title>
<path fill="none" stroke="black" d="M1476.71,-383.777C1685.13,-395.243 2125.68,-420.738 2137.48,-432 2173.37,-466.256 2169.03,-529.503 2162.72,-566.013"/>
<polygon fill="black" stroke="black" points="2160.83,-575.99 2158.27,-565.327 2161.76,-571.077 2162.69,-566.165 2162.69,-566.165 2162.69,-566.165 2161.76,-571.077 2167.11,-567.002 2160.83,-575.99 2160.83,-575.99"/>
</g>
<!-- 40&#45;&gt;112 -->
<g id="edge58" class="edge"><title>40&#45;&gt;112</title>
<path fill="none" stroke="black" d="M1404.91,-396.116C1418.31,-404.967 1432.1,-416.986 1439.48,-432 1446.54,-446.359 1449.65,-455.653 1439.48,-468 1386.2,-532.64 1315.7,-446.83 1254.48,-504 1237.65,-519.717 1232.12,-545.798 1230.52,-565.849"/>
<polygon fill="black" stroke="black" points="1230,-575.98 1226.02,-565.762 1230.25,-570.987 1230.51,-565.993 1230.51,-565.993 1230.51,-565.993 1230.25,-570.987 1235.01,-566.225 1230,-575.98 1230,-575.98"/>
</g>
<!-- 79 -->
<g id="node18" class="node"><title>79</title>
<polygon fill="none" stroke="black" points="750.478,-468 630.478,-468 630.478,-432 750.478,-432 750.478,-468"/>
<text text-anchor="middle" x="690.478" y="-445.9" font-family="Times Roman,serif" font-size="14.00">src.gui._dialogs</text>
</g>
<!-- 42&#45;&gt;79 -->
<g id="edge68" class="edge"><title>42&#45;&gt;79</title>
<path fill="none" stroke="black" d="M632.161,-396.169C641.584,-404.866 653.019,-415.422 663.258,-424.873"/>
<polygon fill="black" stroke="black" points="670.802,-431.837 660.402,-428.361 667.128,-428.446 663.454,-425.054 663.454,-425.054 663.454,-425.054 667.128,-428.446 666.506,-421.748 670.802,-431.837 670.802,-431.837"/>
</g>
<!-- 42&#45;&gt;112 -->
<g id="edge66" class="edge"><title>42&#45;&gt;112</title>
<path fill="none" stroke="black" d="M610.157,-396.201C608.615,-415.36 608.796,-445.767 621.478,-468 648.259,-514.946 669.078,-520.483 719.478,-540 801.341,-571.701 1059.35,-586.575 1174.29,-591.759"/>
<polygon fill="black" stroke="black" points="1184.29,-592.202 1174.11,-596.255 1179.3,-591.98 1174.3,-591.759 1174.3,-591.759 1174.3,-591.759 1179.3,-591.98 1174.5,-587.264 1184.29,-592.202 1184.29,-592.202"/>
</g>
<!-- 46&#45;&gt;9 -->
<g id="edge82" class="edge"><title>46&#45;&gt;9</title>
<path fill="none" stroke="black" d="M918.539,-252.093C991.415,-272.866 1109.28,-310.546 1203.48,-360 1227.72,-372.728 1229.85,-382.16 1253.48,-396 1273.34,-407.631 1296.12,-418.691 1316.2,-427.738"/>
<polygon fill="black" stroke="black" points="1325.52,-431.879 1314.56,-431.93 1320.95,-429.849 1316.38,-427.818 1316.38,-427.818 1316.38,-427.818 1320.95,-429.849 1318.21,-423.706 1325.52,-431.879 1325.52,-431.879"/>
</g>
<!-- 46&#45;&gt;23 -->
<g id="edge76" class="edge"><title>46&#45;&gt;23</title>
<path fill="none" stroke="black" d="M758.336,-240.122C683.747,-246.863 576.645,-260.619 486.478,-288 450.715,-298.86 445.099,-309.917 410.478,-324 364.781,-342.589 346.163,-332.098 305.478,-360 225.982,-414.519 126.31,-463.133 184.478,-540 255.542,-633.907 323.457,-591.816 439.478,-612 578.43,-636.173 1006.49,-656.765 1161.07,-663.595"/>
<polygon fill="black" stroke="black" points="1171.28,-664.044 1161.09,-668.101 1166.29,-663.825 1161.29,-663.605 1161.29,-663.605 1161.29,-663.605 1166.29,-663.825 1161.49,-659.109 1171.28,-664.044 1171.28,-664.044"/>
</g>
<!-- 46&#45;&gt;28 -->
<g id="edge86" class="edge"><title>46&#45;&gt;28</title>
<path fill="none" stroke="black" d="M860.587,-252.045C881.851,-290.003 931.306,-378.287 956.358,-423.007"/>
<polygon fill="black" stroke="black" points="961.314,-431.855 952.501,-425.33 958.87,-427.493 956.427,-423.131 956.427,-423.131 956.427,-423.131 958.87,-427.493 960.353,-420.931 961.314,-431.855 961.314,-431.855"/>
</g>
<!-- 46&#45;&gt;40 -->
<g id="edge78" class="edge"><title>46&#45;&gt;40</title>
<path fill="none" stroke="black" d="M942.598,-241.446C1041.4,-250.345 1191.26,-266.738 1244.48,-288 1282.18,-303.065 1319.13,-331.919 1342.96,-352.907"/>
<polygon fill="black" stroke="black" points="1350.52,-359.691 1340.07,-356.361 1346.8,-356.352 1343.08,-353.012 1343.08,-353.012 1343.08,-353.012 1346.8,-356.352 1346.08,-349.663 1350.52,-359.691 1350.52,-359.691"/>
</g>
<!-- 58 -->
<g id="node13" class="node"><title>58</title>
<polygon fill="none" stroke="black" points="581.478,-324 495.478,-324 495.478,-288 581.478,-288 581.478,-324"/>
<text text-anchor="middle" x="538.478" y="-301.9" font-family="Times Roman,serif" font-size="14.00">src.lib.gpg</text>
</g>
<!-- 46&#45;&gt;58 -->
<g id="edge72" class="edge"><title>46&#45;&gt;58</title>
<path fill="none" stroke="black" d="M772.15,-252.076C715.746,-265.092 641.155,-282.306 591.583,-293.745"/>
<polygon fill="black" stroke="black" points="581.708,-296.024 590.44,-289.39 586.58,-294.9 591.452,-293.775 591.452,-293.775 591.452,-293.775 586.58,-294.9 592.464,-298.16 581.708,-296.024 581.708,-296.024"/>
</g>
<!-- 46&#45;&gt;95 -->
<g id="edge74" class="edge"><title>46&#45;&gt;95</title>
<path fill="none" stroke="black" d="M942.486,-244.238C1031.22,-254.372 1169.23,-270.821 1288.48,-288 1312.81,-291.504 2143.3,-415.461 2161.48,-432 2197.53,-464.796 2190.6,-492.325 2180.48,-540 2178.58,-548.944 2175.09,-558.206 2171.36,-566.48"/>
<polygon fill="black" stroke="black" points="2166.93,-575.66 2167.22,-564.698 2169.1,-571.156 2171.27,-566.651 2171.27,-566.651 2171.27,-566.651 2169.1,-571.156 2175.33,-568.605 2166.93,-575.66 2166.93,-575.66"/>
</g>
<!-- 46&#45;&gt;106 -->
<g id="edge84" class="edge"><title>46&#45;&gt;106</title>
<path fill="none" stroke="black" d="M758.191,-246.284C677.706,-257.061 557.825,-273.269 453.478,-288 439.98,-289.906 425.654,-291.967 411.73,-293.991"/>
<polygon fill="black" stroke="black" points="401.681,-295.455 410.928,-289.56 406.629,-294.734 411.576,-294.013 411.576,-294.013 411.576,-294.013 406.629,-294.734 412.225,-298.466 401.681,-295.455 401.681,-295.455"/>
</g>
<!-- 46&#45;&gt;112 -->
<g id="edge70" class="edge"><title>46&#45;&gt;112</title>
<path fill="none" stroke="black" d="M843.992,-252.23C830.643,-292.866 803.886,-393.183 835.478,-468 853.329,-510.273 868.549,-519.252 909.478,-540 954.763,-562.957 1094.62,-580.29 1173.98,-588.585"/>
<polygon fill="black" stroke="black" points="1184.29,-589.647 1173.88,-593.098 1179.31,-589.134 1174.34,-588.622 1174.34,-588.622 1174.34,-588.622 1179.31,-589.134 1174.8,-584.146 1184.29,-589.647 1184.29,-589.647"/>
</g>
<!-- 46&#45;&gt;150 -->
<g id="edge80" class="edge"><title>46&#45;&gt;150</title>
<path fill="none" stroke="black" d="M834.257,-252.26C796.635,-294.607 706.611,-395.931 706.478,-396 644.355,-428.29 440.072,-379.741 393.478,-432 355.033,-475.121 415.317,-536.157 456.079,-569.652"/>
<polygon fill="black" stroke="black" points="463.936,-575.971 453.323,-573.211 460.04,-572.837 456.143,-569.704 456.143,-569.704 456.143,-569.704 460.04,-572.837 458.963,-566.197 463.936,-575.971 463.936,-575.971"/>
</g>
<!-- 57 -->
<g id="node12" class="node"><title>57</title>
<polygon fill="none" stroke="black" points="1087.48,-36 983.478,-36 983.478,-1.06581e-14 1087.48,-0 1087.48,-36"/>
<text text-anchor="middle" x="1035.48" y="-13.9" font-family="Times Roman,serif" font-size="14.00">src.lib.testlib</text>
</g>
<!-- 58&#45;&gt;42 -->
<g id="edge90" class="edge"><title>58&#45;&gt;42</title>
<path fill="none" stroke="black" d="M557.152,-324.169C566.003,-332.781 576.727,-343.215 586.368,-352.595"/>
<polygon fill="black" stroke="black" points="593.811,-359.837 583.506,-356.089 590.227,-356.35 586.644,-352.864 586.644,-352.864 586.644,-352.864 590.227,-356.35 589.782,-349.638 593.811,-359.837 593.811,-359.837"/>
</g>
<!-- 58&#45;&gt;112 -->
<g id="edge88" class="edge"><title>58&#45;&gt;112</title>
<path fill="none" stroke="black" d="M500.589,-324.083C444.844,-353.134 351.626,-412.575 393.478,-468 463.929,-561.297 531.558,-518.526 646.478,-540 838.026,-575.793 1069.56,-588.249 1174.24,-592.257"/>
<polygon fill="black" stroke="black" points="1184.27,-592.629 1174.11,-596.755 1179.28,-592.444 1174.28,-592.258 1174.28,-592.258 1174.28,-592.258 1179.28,-592.444 1174.45,-587.761 1184.27,-592.629 1184.27,-592.629"/>
</g>
<!-- 58&#45;&gt;150 -->
<g id="edge92" class="edge"><title>58&#45;&gt;150</title>
<path fill="none" stroke="black" d="M495.314,-319.982C490.657,-321.385 485.978,-322.751 481.478,-324 415.416,-342.334 377.189,-308.902 331.478,-360 277.453,-420.393 300.759,-485.23 360.478,-540 382.387,-560.093 412.87,-573.355 438.593,-581.707"/>
<polygon fill="black" stroke="black" points="448.191,-584.671 437.308,-586.02 443.413,-583.196 438.636,-581.72 438.636,-581.72 438.636,-581.72 443.413,-583.196 439.964,-577.421 448.191,-584.671 448.191,-584.671"/>
</g>
<!-- 59 -->
<g id="node14" class="node"><title>59</title>
<polygon fill="none" stroke="black" points="1645.48,-108 1475.48,-108 1475.48,-72 1645.48,-72 1645.48,-108"/>
<text text-anchor="middle" x="1560.48" y="-85.9" font-family="Times Roman,serif" font-size="14.00">src.gui._main_window</text>
</g>
<!-- 59&#45;&gt;3 -->
<g id="edge100" class="edge"><title>59&#45;&gt;3</title>
<path fill="none" stroke="black" d="M1645.69,-98.6678C1729.65,-107.783 1861.41,-123.63 1974.48,-144 1975.75,-144.229 1977.03,-144.464 1978.32,-144.707"/>
<polygon fill="black" stroke="black" points="1988.31,-146.671 1977.63,-149.157 1983.4,-145.707 1978.5,-144.742 1978.5,-144.742 1978.5,-144.742 1983.4,-145.707 1979.36,-140.326 1988.31,-146.671 1988.31,-146.671"/>
</g>
<!-- 59&#45;&gt;11 -->
<g id="edge106" class="edge"><title>59&#45;&gt;11</title>
<path fill="none" stroke="black" d="M1560.48,-108.169C1560.48,-115.869 1560.48,-125.026 1560.48,-133.583"/>
<polygon fill="black" stroke="black" points="1560.48,-143.587 1555.98,-133.587 1560.48,-138.587 1560.48,-133.587 1560.48,-133.587 1560.48,-133.587 1560.48,-138.587 1564.98,-133.587 1560.48,-143.587 1560.48,-143.587"/>
</g>
<!-- 59&#45;&gt;23 -->
<g id="edge114" class="edge"><title>59&#45;&gt;23</title>
<path fill="none" stroke="black" d="M1475.27,-92.0355C1229.78,-98.1856 532.202,-117.777 432.478,-144 233.287,-196.379 32.4785,-172.037 32.4785,-378 32.4785,-378 32.4785,-378 32.4785,-522 32.4785,-562.205 -112.459,-532.224 217.478,-612 398.589,-655.791 977.433,-664.107 1161.04,-665.654"/>
<polygon fill="black" stroke="black" points="1171.28,-665.737 1161.24,-670.156 1166.28,-665.697 1161.28,-665.656 1161.28,-665.656 1161.28,-665.656 1166.28,-665.697 1161.31,-661.156 1171.28,-665.737 1171.28,-665.737"/>
</g>
<!-- 59&#45;&gt;28 -->
<g id="edge112" class="edge"><title>59&#45;&gt;28</title>
<path fill="none" stroke="black" d="M1475.29,-93.2261C1312.33,-101.73 972.478,-131.725 972.478,-234 972.478,-234 972.478,-234 972.478,-306 972.478,-346.125 972.085,-392.538 971.792,-421.583"/>
<polygon fill="black" stroke="black" points="971.686,-431.815 967.29,-421.769 971.738,-426.815 971.79,-421.815 971.79,-421.815 971.79,-421.815 971.738,-426.815 976.29,-421.862 971.686,-431.815 971.686,-431.815"/>
</g>
<!-- 59&#45;&gt;36 -->
<g id="edge104" class="edge"><title>59&#45;&gt;36</title>
<path fill="none" stroke="black" d="M1645.55,-92.525C1790.09,-97.6427 2077.23,-111.626 2172.48,-144 2228.86,-163.165 2239.3,-178.398 2285.48,-216 2357.65,-274.765 2402.02,-303.423 2392.48,-396 2385.78,-461.03 2398.6,-485.508 2362.48,-540 2354.5,-552.041 2342.83,-562.17 2330.94,-570.284"/>
<polygon fill="black" stroke="black" points="2322.29,-575.835 2328.27,-566.647 2326.5,-573.134 2330.7,-570.434 2330.7,-570.434 2330.7,-570.434 2326.5,-573.134 2333.13,-574.221 2322.29,-575.835 2322.29,-575.835"/>
</g>
<!-- 59&#45;&gt;42 -->
<g id="edge96" class="edge"><title>59&#45;&gt;42</title>
<path fill="none" stroke="black" d="M1475.18,-92.018C1252.11,-97.688 666.516,-115.251 636.478,-144 580.544,-197.535 594.295,-300.116 605.193,-349.736"/>
<polygon fill="black" stroke="black" points="607.517,-359.763 600.875,-351.037 606.388,-354.892 605.259,-350.021 605.259,-350.021 605.259,-350.021 606.388,-354.892 609.643,-349.005 607.517,-359.763 607.517,-359.763"/>
</g>
<!-- 59&#45;&gt;63 -->
<g id="edge110" class="edge"><title>59&#45;&gt;63</title>
<path fill="none" stroke="black" d="M1645.78,-104.06C1714.54,-119.781 1808.79,-151.98 1865.48,-216 1935.23,-294.781 1894.07,-434.802 1871.86,-494.164"/>
<polygon fill="black" stroke="black" points="1868.22,-503.629 1867.61,-492.68 1870.01,-498.962 1871.81,-494.295 1871.81,-494.295 1871.81,-494.295 1870.01,-498.962 1876.01,-495.91 1868.22,-503.629 1868.22,-503.629"/>
</g>
<!-- 59&#45;&gt;95 -->
<g id="edge116" class="edge"><title>59&#45;&gt;95</title>
<path fill="none" stroke="black" d="M1645.7,-91.3396C1782.02,-94.6108 2042.24,-105.812 2125.48,-144 2308.08,-227.778 2464.24,-379.436 2343.48,-540 2341.59,-542.509 2278.83,-560.316 2226.53,-574.806"/>
<polygon fill="black" stroke="black" points="2216.57,-577.561 2225.01,-570.558 2221.39,-576.228 2226.21,-574.896 2226.21,-574.896 2226.21,-574.896 2221.39,-576.228 2227.41,-579.233 2216.57,-577.561 2216.57,-577.561"/>
</g>
<!-- 104 -->
<g id="node20" class="node"><title>104</title>
<polygon fill="none" stroke="black" points="1856.48,-252 1734.48,-252 1734.48,-216 1856.48,-216 1856.48,-252"/>
<text text-anchor="middle" x="1795.48" y="-229.9" font-family="Times Roman,serif" font-size="14.00">src.lib.clipboard</text>
</g>
<!-- 59&#45;&gt;104 -->
<g id="edge102" class="edge"><title>59&#45;&gt;104</title>
<path fill="none" stroke="black" d="M1590.24,-108.238C1632.71,-134.26 1710.7,-182.049 1757.35,-210.634"/>
<polygon fill="black" stroke="black" points="1765.96,-215.91 1755.08,-214.523 1761.69,-213.298 1757.43,-210.686 1757.43,-210.686 1757.43,-210.686 1761.69,-213.298 1759.78,-206.849 1765.96,-215.91 1765.96,-215.91"/>
</g>
<!-- 59&#45;&gt;112 -->
<g id="edge94" class="edge"><title>59&#45;&gt;112</title>
<path fill="none" stroke="black" d="M1475.2,-93.745C1366.19,-99.5809 1172,-113.511 1008.48,-144 891.026,-165.899 821.767,-120.874 749.478,-216 703.807,-276.099 791.519,-494.146 851.478,-540 900.966,-577.846 1081.22,-589.221 1174.18,-592.599"/>
<polygon fill="black" stroke="black" points="1184.26,-592.946 1174.11,-597.099 1179.26,-592.774 1174.26,-592.602 1174.26,-592.602 1174.26,-592.602 1179.26,-592.774 1174.42,-588.104 1184.26,-592.946 1184.26,-592.946"/>
</g>
<!-- 59&#45;&gt;123 -->
<g id="edge98" class="edge"><title>59&#45;&gt;123</title>
<path fill="none" stroke="black" d="M1645.57,-99.4502C1717.66,-112.453 1816.85,-143.244 1865.48,-216 1874.37,-229.302 1871.99,-237.384 1865.48,-252 1860.45,-263.302 1851.75,-273.23 1842.51,-281.389"/>
<polygon fill="black" stroke="black" points="1834.7,-287.817 1839.56,-277.989 1838.56,-284.641 1842.42,-281.465 1842.42,-281.465 1842.42,-281.465 1838.56,-284.641 1845.28,-284.94 1834.7,-287.817 1834.7,-287.817"/>
</g>
<!-- 59&#45;&gt;150 -->
<g id="edge108" class="edge"><title>59&#45;&gt;150</title>
<path fill="none" stroke="black" d="M1475.4,-91.3078C1274.07,-94.9702 773.115,-107.563 609.478,-144 441.675,-181.364 375.614,-170.122 250.478,-288 166.204,-367.387 108.889,-452.303 184.478,-540 192.73,-549.574 353.876,-574.358 438.116,-586.739"/>
<polygon fill="black" stroke="black" points="448.239,-588.221 437.693,-591.224 443.292,-587.496 438.345,-586.772 438.345,-586.772 438.345,-586.772 443.292,-587.496 438.997,-582.319 448.239,-588.221 448.239,-588.221"/>
</g>
<!-- 62 -->
<g id="node15" class="node"><title>62</title>
<polygon fill="none" stroke="black" points="1167.48,-36 1105.48,-36 1105.48,-1.06581e-14 1167.48,-0 1167.48,-36"/>
<text text-anchor="middle" x="1136.48" y="-13.9" font-family="Times Roman,serif" font-size="14.00">src.gui</text>
</g>
<!-- 63&#45;&gt;23 -->
<g id="edge122" class="edge"><title>63&#45;&gt;23</title>
<path fill="none" stroke="black" d="M1796.21,-536.87C1791.57,-537.933 1786.95,-538.985 1782.48,-540 1596.29,-582.245 1375.29,-631.179 1273.68,-653.61"/>
<polygon fill="black" stroke="black" points="1263.64,-655.826 1272.44,-649.276 1268.53,-654.748 1273.41,-653.67 1273.41,-653.67 1273.41,-653.67 1268.53,-654.748 1274.38,-658.065 1263.64,-655.826 1263.64,-655.826"/>
</g>
<!-- 63&#45;&gt;36 -->
<g id="edge124" class="edge"><title>63&#45;&gt;36</title>
<path fill="none" stroke="black" d="M1924.72,-532.64C1940.03,-535.115 1956.33,-537.698 1971.48,-540 2081.01,-556.641 2112.41,-551.602 2224.41,-575.941"/>
<polygon fill="black" stroke="black" points="2234.41,-578.145 2223.67,-580.388 2229.52,-577.069 2224.64,-575.993 2224.64,-575.993 2224.64,-575.993 2229.52,-577.069 2225.61,-571.599 2234.41,-578.145 2234.41,-578.145"/>
</g>
<!-- 63&#45;&gt;95 -->
<g id="edge120" class="edge"><title>63&#45;&gt;95</title>
<path fill="none" stroke="black" d="M1924.71,-537.623C1972.43,-549.231 2037.48,-565.053 2086.51,-576.982"/>
<polygon fill="black" stroke="black" points="2096.41,-579.389 2085.63,-581.398 2091.55,-578.207 2086.69,-577.025 2086.69,-577.025 2086.69,-577.025 2091.55,-578.207 2087.76,-572.653 2096.41,-579.389 2096.41,-579.389"/>
</g>
<!-- 63&#45;&gt;112 -->
<g id="edge118" class="edge"><title>63&#45;&gt;112</title>
<path fill="none" stroke="black" d="M1796.34,-537.494C1791.66,-538.411 1787,-539.26 1782.48,-540 1602.59,-569.429 1386.91,-584.862 1286.73,-590.906"/>
<polygon fill="black" stroke="black" points="1276.54,-591.513 1286.25,-586.427 1281.53,-591.216 1286.52,-590.919 1286.52,-590.919 1286.52,-590.919 1281.53,-591.216 1286.79,-595.411 1276.54,-591.513 1276.54,-591.513"/>
</g>
<!-- 63&#45;&gt;150 -->
<g id="edge126" class="edge"><title>63&#45;&gt;150</title>
<path fill="none" stroke="black" d="M1796.07,-529.008C1760.05,-532.724 1714.31,-537.106 1673.48,-540 1234.51,-571.108 702.738,-587.908 538.928,-592.611"/>
<polygon fill="black" stroke="black" points="528.675,-592.904 538.543,-588.12 533.673,-592.761 538.671,-592.619 538.671,-592.619 538.671,-592.619 533.673,-592.761 538.799,-597.117 528.675,-592.904 528.675,-592.904"/>
</g>
<!-- 78 -->
<g id="node17" class="node"><title>78</title>
<polygon fill="none" stroke="black" points="1550.48,-540 1494.48,-540 1494.48,-504 1550.48,-504 1550.48,-540"/>
<text text-anchor="middle" x="1522.48" y="-517.9" font-family="Times Roman,serif" font-size="14.00">src.lib</text>
</g>
<!-- 79&#45;&gt;23 -->
<g id="edge132" class="edge"><title>79&#45;&gt;23</title>
<path fill="none" stroke="black" d="M691.548,-468.02C693.699,-488.182 700.151,-520.557 719.478,-540 781.579,-602.469 1044.36,-643.555 1161.14,-659.062"/>
<polygon fill="black" stroke="black" points="1171.31,-660.396 1160.81,-663.556 1166.35,-659.745 1161.39,-659.094 1161.39,-659.094 1161.39,-659.094 1166.35,-659.745 1161.98,-654.633 1171.31,-660.396 1171.31,-660.396"/>
</g>
<!-- 79&#45;&gt;63 -->
<g id="edge130" class="edge"><title>79&#45;&gt;63</title>
<path fill="none" stroke="black" d="M750.684,-458.576C776.711,-461.998 807.545,-465.67 835.478,-468 1206.98,-498.987 1301.59,-478.132 1673.48,-504 1710.48,-506.574 1751.52,-510.414 1785.7,-513.886"/>
<polygon fill="black" stroke="black" points="1796.07,-514.951 1785.67,-518.407 1791.1,-514.44 1786.12,-513.93 1786.12,-513.93 1786.12,-513.93 1791.1,-514.44 1786.58,-509.454 1796.07,-514.951 1796.07,-514.951"/>
</g>
<!-- 79&#45;&gt;95 -->
<g id="edge134" class="edge"><title>79&#45;&gt;95</title>
<path fill="none" stroke="black" d="M750.769,-457.722C776.81,-460.996 807.633,-464.789 835.478,-468 910.517,-476.653 1106.05,-469.961 1173.48,-504 1192.85,-513.781 1186.87,-530.7 1206.48,-540 1285.24,-577.35 1879.88,-589.818 2086.22,-593.045"/>
<polygon fill="black" stroke="black" points="2096.33,-593.201 2086.26,-597.546 2091.33,-593.124 2086.33,-593.047 2086.33,-593.047 2086.33,-593.047 2091.33,-593.124 2086.4,-588.547 2096.33,-593.201 2096.33,-593.201"/>
</g>
<!-- 79&#45;&gt;112 -->
<g id="edge128" class="edge"><title>79&#45;&gt;112</title>
<path fill="none" stroke="black" d="M699.319,-468.07C710.731,-489.245 732.716,-523.529 762.478,-540 831.977,-578.462 1065.43,-589.646 1174.03,-592.803"/>
<polygon fill="black" stroke="black" points="1184.14,-593.084 1174.02,-597.305 1179.14,-592.945 1174.15,-592.806 1174.15,-592.806 1174.15,-592.806 1179.14,-592.945 1174.27,-588.308 1184.14,-593.084 1184.14,-593.084"/>
</g>
<!-- 79&#45;&gt;150 -->
<g id="edge138" class="edge"><title>79&#45;&gt;150</title>
<path fill="none" stroke="black" d="M661.72,-468.003C645.589,-478.277 625.206,-491.553 607.478,-504 576.947,-525.437 543.106,-551.238 519.342,-569.709"/>
<polygon fill="black" stroke="black" points="511.378,-575.917 516.498,-566.22 515.321,-572.843 519.265,-569.769 519.265,-569.769 519.265,-569.769 515.321,-572.843 522.031,-573.318 511.378,-575.917 511.378,-575.917"/>
</g>
<!-- 79&#45;&gt;154 -->
<g id="edge136" class="edge"><title>79&#45;&gt;154</title>
<path fill="none" stroke="black" d="M750.583,-465.623C797.279,-477.76 861.702,-494.506 908.189,-506.589"/>
<polygon fill="black" stroke="black" points="918.119,-509.17 907.308,-511.01 913.279,-507.912 908.44,-506.654 908.44,-506.654 908.44,-506.654 913.279,-507.912 909.572,-502.299 918.119,-509.17 918.119,-509.17"/>
</g>
<!-- 104&#45;&gt;112 -->
<g id="edge140" class="edge"><title>104&#45;&gt;112</title>
<path fill="none" stroke="black" d="M1760.82,-252.08C1747.37,-260.99 1733.34,-273.061 1725.48,-288 1688.15,-358.898 1738.53,-391.263 1715.48,-468 1704.82,-503.481 1704.43,-519.635 1673.48,-540 1641.74,-560.883 1398.62,-581.463 1286.63,-589.947"/>
<polygon fill="black" stroke="black" points="1276.54,-590.706 1286.17,-585.469 1281.52,-590.331 1286.51,-589.956 1286.51,-589.956 1286.51,-589.956 1281.52,-590.331 1286.85,-594.444 1276.54,-590.706 1276.54,-590.706"/>
</g>
<!-- 106&#45;&gt;150 -->
<g id="edge142" class="edge"><title>106&#45;&gt;150</title>
<path fill="none" stroke="black" d="M299.994,-324.223C285.513,-333.768 268.557,-346.31 255.478,-360 198.364,-419.786 155.839,-476.239 208.478,-540 237.017,-574.569 365.295,-587.252 437.92,-591.715"/>
<polygon fill="black" stroke="black" points="448.213,-592.315 437.968,-596.225 443.221,-592.024 438.23,-591.733 438.23,-591.733 438.23,-591.733 443.221,-592.024 438.492,-587.24 448.213,-592.315 448.213,-592.315"/>
</g>
<!-- 108&#45;&gt;112 -->
<g id="edge144" class="edge"><title>108&#45;&gt;112</title>
<path fill="none" stroke="black" d="M1132.54,-540.169C1149.45,-549.463 1170.22,-560.879 1188.27,-570.803"/>
<polygon fill="black" stroke="black" points="1197.43,-575.837 1186.5,-574.964 1193.05,-573.429 1188.67,-571.021 1188.67,-571.021 1188.67,-571.021 1193.05,-573.429 1190.84,-567.077 1197.43,-575.837 1197.43,-575.837"/>
</g>
<!-- 111 -->
<g id="node23" class="node"><title>111</title>
<polygon fill="none" stroke="black" points="1267.48,-36 1185.48,-36 1185.48,-1.06581e-14 1267.48,-0 1267.48,-36"/>
<text text-anchor="middle" x="1226.48" y="-13.9" font-family="Times Roman,serif" font-size="14.00">src.model</text>
</g>
<!-- 113&#45;&gt;112 -->
<g id="edge146" class="edge"><title>113&#45;&gt;112</title>
<path fill="none" stroke="black" d="M1347.11,-540.169C1326.34,-549.755 1300.68,-561.599 1278.72,-571.734"/>
<polygon fill="black" stroke="black" points="1269.56,-575.962 1276.75,-567.686 1274.1,-573.867 1278.64,-571.771 1278.64,-571.771 1278.64,-571.771 1274.1,-573.867 1280.53,-575.857 1269.56,-575.962 1269.56,-575.962"/>
</g>
<!-- 115&#45;&gt;24 -->
<g id="edge148" class="edge"><title>115&#45;&gt;24</title>
<path fill="none" stroke="black" d="M1609.75,-468.169C1610.71,-475.869 1611.86,-485.026 1612.93,-493.583"/>
<polygon fill="black" stroke="black" points="1614.18,-503.587 1608.47,-494.222 1613.56,-498.625 1612.94,-493.664 1612.94,-493.664 1612.94,-493.664 1613.56,-498.625 1617.4,-493.106 1614.18,-503.587 1614.18,-503.587"/>
</g>
<!-- 115&#45;&gt;78 -->
<g id="edge156" class="edge"><title>115&#45;&gt;78</title>
<path fill="none" stroke="black" d="M1586.03,-468.169C1575.66,-476.952 1563.06,-487.629 1551.81,-497.151"/>
<polygon fill="black" stroke="black" points="1543.92,-503.837 1548.64,-493.94 1547.74,-500.605 1551.55,-497.374 1551.55,-497.374 1551.55,-497.374 1547.74,-500.605 1554.46,-500.807 1543.92,-503.837 1543.92,-503.837"/>
</g>
<!-- 115&#45;&gt;112 -->
<g id="edge150" class="edge"><title>115&#45;&gt;112</title>
<path fill="none" stroke="black" d="M1556.5,-468.022C1533.82,-477.162 1507.36,-489.427 1485.48,-504 1466.12,-516.896 1467.88,-528.823 1447.48,-540 1396.99,-567.657 1332.18,-581.392 1286.59,-588.054"/>
<polygon fill="black" stroke="black" points="1276.58,-589.447 1285.87,-583.61 1281.54,-588.757 1286.49,-588.067 1286.49,-588.067 1286.49,-588.067 1281.54,-588.757 1287.11,-592.524 1276.58,-589.447 1276.58,-589.447"/>
</g>
<!-- 115&#45;&gt;113 -->
<g id="edge152" class="edge"><title>115&#45;&gt;113</title>
<path fill="none" stroke="black" d="M1552,-468.076C1520.48,-478.344 1480.94,-491.224 1448.42,-501.821"/>
<polygon fill="black" stroke="black" points="1438.56,-505.031 1446.68,-497.655 1443.32,-503.482 1448.07,-501.933 1448.07,-501.933 1448.07,-501.933 1443.32,-503.482 1449.47,-506.212 1438.56,-505.031 1438.56,-505.031"/>
</g>
<!-- 122 -->
<g id="node29" class="node"><title>122</title>
<polygon fill="none" stroke="black" points="2090.48,-540 1980.48,-540 1980.48,-504 2090.48,-504 2090.48,-540"/>
<text text-anchor="middle" x="2035.48" y="-517.9" font-family="Times Roman,serif" font-size="14.00">src.lib.parsers</text>
</g>
<!-- 115&#45;&gt;122 -->
<g id="edge154" class="edge"><title>115&#45;&gt;122</title>
<path fill="none" stroke="black" d="M1690.59,-463.52C1756.5,-474.3 1850.92,-489.878 1933.48,-504 1945.39,-506.037 1958.07,-508.245 1970.3,-510.393"/>
<polygon fill="black" stroke="black" points="1980.44,-512.179 1969.81,-514.876 1975.52,-511.312 1970.59,-510.444 1970.59,-510.444 1970.59,-510.444 1975.52,-511.312 1971.38,-506.013 1980.44,-512.179 1980.44,-512.179"/>
</g>
<!-- 115&#45;&gt;150 -->
<g id="edge158" class="edge"><title>115&#45;&gt;150</title>
<path fill="none" stroke="black" d="M1524.23,-459.568C1497.21,-462.499 1467.09,-465.584 1439.48,-468 1204.28,-488.58 1143.22,-470.746 909.478,-504 835.168,-514.572 817.867,-524.254 744.478,-540 673.073,-555.321 590.381,-572.697 538.746,-583.504"/>
<polygon fill="black" stroke="black" points="528.845,-585.575 537.712,-579.123 533.739,-584.551 538.633,-583.527 538.633,-583.527 538.633,-583.527 533.739,-584.551 539.555,-587.932 528.845,-585.575 528.845,-585.575"/>
</g>
<!-- 118 -->
<g id="node27" class="node"><title>118</title>
<polygon fill="none" stroke="black" points="965.478,-36 863.478,-36 863.478,-1.06581e-14 965.478,-0 965.478,-36"/>
<text text-anchor="middle" x="914.478" y="-13.9" font-family="Times Roman,serif" font-size="14.00">src.pyspread</text>
</g>
<!-- 118&#45;&gt;23 -->
<g id="edge168" class="edge"><title>118&#45;&gt;23</title>
<path fill="none" stroke="black" d="M965.661,-34.3042C968.627,-34.9522 971.581,-35.5262 974.478,-36 1458.1,-115.067 1588.81,-23.8856 2076.48,-72 2300.31,-94.0836 2574.48,62.9188 2574.48,-162 2574.48,-162 2574.48,-162 2574.48,-522 2574.48,-542.883 2625.52,-552.149 2442.48,-612 2330.75,-648.533 1499.96,-662.223 1274.04,-665.292"/>
<polygon fill="black" stroke="black" points="1263.75,-665.43 1273.69,-660.797 1268.75,-665.363 1273.75,-665.296 1273.75,-665.296 1273.75,-665.296 1268.75,-665.363 1273.81,-669.796 1263.75,-665.43 1263.75,-665.43"/>
</g>
<!-- 118&#45;&gt;58 -->
<g id="edge164" class="edge"><title>118&#45;&gt;58</title>
<path fill="none" stroke="black" d="M863.336,-25.2663C794.248,-37.6732 671.377,-69.278 598.478,-144 562.226,-181.16 547.567,-242.131 541.874,-277.725"/>
<polygon fill="black" stroke="black" points="540.382,-287.902 537.381,-277.355 541.107,-282.955 541.833,-278.008 541.833,-278.008 541.833,-278.008 541.107,-282.955 546.285,-278.661 540.382,-287.902 540.382,-287.902"/>
</g>
<!-- 118&#45;&gt;59 -->
<g id="edge162" class="edge"><title>118&#45;&gt;59</title>
<path fill="none" stroke="black" d="M965.697,-34.0987C968.654,-34.799 971.596,-35.4406 974.478,-36 1145.34,-69.157 1348.3,-82.0979 1464.98,-87.0455"/>
<polygon fill="black" stroke="black" points="1475.3,-87.472 1465.13,-91.5554 1470.31,-87.2656 1465.31,-87.0592 1465.31,-87.0592 1465.31,-87.0592 1470.31,-87.2656 1465.5,-82.5631 1475.3,-87.472 1475.3,-87.472"/>
</g>
<!-- 118&#45;&gt;95 -->
<g id="edge166" class="edge"><title>118&#45;&gt;95</title>
<path fill="none" stroke="black" d="M965.672,-34.2339C968.635,-34.8998 971.586,-35.4969 974.478,-36 1272.65,-87.8507 1352.79,-47.9461 1654.48,-72 1842.5,-86.9912 2498.48,26.6189 2498.48,-162 2498.48,-162 2498.48,-162 2498.48,-234 2498.48,-381.764 2480.74,-443.924 2368.48,-540 2321.02,-580.616 2291.8,-561.73 2226.57,-575.918"/>
<polygon fill="black" stroke="black" points="2216.68,-578.263 2225.37,-571.577 2221.55,-577.109 2226.41,-575.956 2226.41,-575.956 2226.41,-575.956 2221.55,-577.109 2227.45,-580.335 2216.68,-578.263 2216.68,-578.263"/>
</g>
<!-- 118&#45;&gt;112 -->
<g id="edge160" class="edge"><title>118&#45;&gt;112</title>
<path fill="none" stroke="black" d="M863.422,-23.3312C704.858,-40.5675 231.478,-97.4321 231.478,-162 231.478,-162 231.478,-162 231.478,-306 231.478,-441.378 305.876,-478.501 426.478,-540 492.66,-573.748 1002.53,-588.669 1174.24,-592.772"/>
<polygon fill="black" stroke="black" points="1184.34,-593.01 1174.23,-597.273 1179.34,-592.892 1174.34,-592.774 1174.34,-592.774 1174.34,-592.774 1179.34,-592.892 1174.45,-588.275 1184.34,-593.01 1184.34,-593.01"/>
</g>
<!-- 118&#45;&gt;150 -->
<g id="edge170" class="edge"><title>118&#45;&gt;150</title>
<path fill="none" stroke="black" d="M863.403,-18.9751C762.7,-21.74 531.863,-32.2603 342.478,-72 217.858,-98.1499 70.4785,-34.6653 70.4785,-162 70.4785,-162 70.4785,-162 70.4785,-450 70.4785,-505.634 108.184,-514.209 157.478,-540 205.371,-565.057 357.897,-582.172 438.095,-589.685"/>
<polygon fill="black" stroke="black" points="448.444,-590.639 438.073,-594.202 443.465,-590.18 438.486,-589.721 438.486,-589.721 438.486,-589.721 443.465,-590.18 438.899,-585.24 448.444,-590.639 448.444,-590.639"/>
</g>
<!-- 121 -->
<g id="node28" class="node"><title>121</title>
<polygon fill="none" stroke="black" points="1339.48,-36 1285.48,-36 1285.48,-1.06581e-14 1339.48,-0 1339.48,-36"/>
<text text-anchor="middle" x="1312.48" y="-13.9" font-family="Times Roman,serif" font-size="14.00">src</text>
</g>
<!-- 122&#45;&gt;23 -->
<g id="edge172" class="edge"><title>122&#45;&gt;23</title>
<path fill="none" stroke="black" d="M1980.21,-536.84C1975.58,-537.956 1970.95,-539.025 1966.48,-540 1709.89,-595.9 1399.24,-641.08 1273.92,-658.389"/>
<polygon fill="black" stroke="black" points="1263.8,-659.782 1273.09,-653.961 1268.75,-659.101 1273.7,-658.419 1273.7,-658.419 1273.7,-658.419 1268.75,-659.101 1274.32,-662.877 1263.8,-659.782 1263.8,-659.782"/>
</g>
<!-- 123&#45;&gt;95 -->
<g id="edge176" class="edge"><title>123&#45;&gt;95</title>
<path fill="none" stroke="black" d="M1872.19,-324.08C1987.91,-355.701 2214.83,-418.938 2227.48,-432 2261.38,-467.012 2270.49,-497.589 2246.48,-540 2239.18,-552.883 2227.45,-563.028 2214.84,-570.875"/>
<polygon fill="black" stroke="black" points="2206.01,-575.946 2212.44,-567.064 2210.34,-573.457 2214.68,-570.967 2214.68,-570.967 2214.68,-570.967 2210.34,-573.457 2216.92,-574.869 2206.01,-575.946 2206.01,-575.946"/>
</g>
<!-- 123&#45;&gt;112 -->
<g id="edge174" class="edge"><title>123&#45;&gt;112</title>
<path fill="none" stroke="black" d="M1804.87,-324.158C1802.16,-371.522 1787.34,-498.053 1706.48,-540 1669.93,-558.96 1405.11,-580.899 1287.04,-589.863"/>
<polygon fill="black" stroke="black" points="1276.76,-590.639 1286.39,-585.399 1281.74,-590.262 1286.73,-589.886 1286.73,-589.886 1286.73,-589.886 1281.74,-590.262 1287.07,-594.373 1276.76,-590.639 1276.76,-590.639"/>
</g>
<!-- 127&#45;&gt;36 -->
<g id="edge188" class="edge"><title>127&#45;&gt;36</title>
<path fill="none" stroke="black" d="M2079.24,-468.238C2121.71,-494.26 2199.7,-542.049 2246.35,-570.634"/>
<polygon fill="black" stroke="black" points="2254.96,-575.91 2244.08,-574.523 2250.69,-573.298 2246.43,-570.686 2246.43,-570.686 2246.43,-570.686 2250.69,-573.298 2248.78,-566.849 2254.96,-575.91 2254.96,-575.91"/>
</g>
<!-- 127&#45;&gt;63 -->
<g id="edge184" class="edge"><title>127&#45;&gt;63</title>
<path fill="none" stroke="black" d="M2001.79,-468.169C1976.17,-477.927 1944.42,-490.023 1917.5,-500.276"/>
<polygon fill="black" stroke="black" points="1907.83,-503.962 1915.57,-496.197 1912.5,-502.182 1917.17,-500.402 1917.17,-500.402 1917.17,-500.402 1912.5,-502.182 1918.78,-504.607 1907.83,-503.962 1907.83,-503.962"/>
</g>
<!-- 127&#45;&gt;95 -->
<g id="edge182" class="edge"><title>127&#45;&gt;95</title>
<path fill="none" stroke="black" d="M2067.94,-468.25C2077.79,-478.381 2089.82,-491.443 2099.48,-504 2115.01,-524.19 2130.33,-548.706 2141.17,-567.049"/>
<polygon fill="black" stroke="black" points="2146.26,-575.767 2137.33,-569.4 2143.74,-571.449 2141.22,-567.131 2141.22,-567.131 2141.22,-567.131 2143.74,-571.449 2145.1,-564.862 2146.26,-575.767 2146.26,-575.767"/>
</g>
<!-- 127&#45;&gt;112 -->
<g id="edge180" class="edge"><title>127&#45;&gt;112</title>
<path fill="none" stroke="black" d="M2020.93,-468.242C2005.83,-478.266 1987.21,-491.231 1971.48,-504 1953.42,-518.664 1954.74,-530.566 1933.48,-540 1904.05,-553.053 1448.22,-581.121 1286.69,-590.71"/>
<polygon fill="black" stroke="black" points="1276.48,-591.315 1286.2,-586.231 1281.48,-591.019 1286.47,-590.723 1286.47,-590.723 1286.47,-590.723 1281.48,-591.019 1286.73,-595.216 1276.48,-591.315 1276.48,-591.315"/>
</g>
<!-- 127&#45;&gt;113 -->
<g id="edge178" class="edge"><title>127&#45;&gt;113</title>
<path fill="none" stroke="black" d="M1970.3,-455.462C1860.96,-463.488 1657.69,-480.143 1485.48,-504 1473.51,-505.657 1460.79,-507.732 1448.59,-509.879"/>
<polygon fill="black" stroke="black" points="1438.5,-511.691 1447.54,-505.495 1443.42,-510.808 1448.34,-509.924 1448.34,-509.924 1448.34,-509.924 1443.42,-510.808 1449.13,-514.353 1438.5,-511.691 1438.5,-511.691"/>
</g>
<!-- 127&#45;&gt;122 -->
<g id="edge186" class="edge"><title>127&#45;&gt;122</title>
<path fill="none" stroke="black" d="M2045.95,-468.169C2044.45,-475.869 2042.67,-485.026 2041,-493.583"/>
<polygon fill="black" stroke="black" points="2039.06,-503.587 2036.55,-492.912 2040.01,-498.679 2040.97,-493.771 2040.97,-493.771 2040.97,-493.771 2040.01,-498.679 2045.38,-494.63 2039.06,-503.587 2039.06,-503.587"/>
</g>
<!-- 147&#45;&gt;150 -->
<g id="edge190" class="edge"><title>147&#45;&gt;150</title>
<path fill="none" stroke="black" d="M471.885,-468.238C475.126,-492.799 480.925,-536.753 484.737,-565.646"/>
<polygon fill="black" stroke="black" points="486.092,-575.91 480.322,-566.585 485.438,-570.953 484.783,-565.996 484.783,-565.996 484.783,-565.996 485.438,-570.953 489.245,-565.408 486.092,-575.91 486.092,-575.91"/>
</g>
<!-- 150&#45;&gt;23 -->
<g id="edge192" class="edge"><title>150&#45;&gt;23</title>
<path fill="none" stroke="black" d="M528.605,-600.701C551.638,-604.39 581.13,-608.844 607.478,-612 810.983,-636.375 1053.91,-654.661 1161.48,-662.207"/>
<polygon fill="black" stroke="black" points="1171.46,-662.903 1161.18,-666.696 1166.48,-662.555 1161.49,-662.207 1161.49,-662.207 1161.49,-662.207 1166.48,-662.555 1161.8,-657.718 1171.46,-662.903 1171.46,-662.903"/>
</g>
<!-- 153 -->
<g id="node35" class="node"><title>153</title>
<polygon fill="none" stroke="black" points="1445.48,-36 1357.48,-36 1357.48,-1.06581e-14 1445.48,-0 1445.48,-36"/>
<text text-anchor="middle" x="1401.48" y="-13.9" font-family="Times Roman,serif" font-size="14.00">src.actions</text>
</g>
<!-- 154&#45;&gt;95 -->
<g id="edge196" class="edge"><title>154&#45;&gt;95</title>
<path fill="none" stroke="black" d="M1016.63,-538.183C1019.61,-538.873 1022.57,-539.488 1025.48,-540 1230.72,-576.143 1871.82,-589.459 2086,-592.967"/>
<polygon fill="black" stroke="black" points="2096.18,-593.131 2086.11,-597.469 2091.18,-593.05 2086.18,-592.97 2086.18,-592.97 2086.18,-592.97 2091.18,-593.05 2086.25,-588.47 2096.18,-593.131 2096.18,-593.131"/>
</g>
<!-- 154&#45;&gt;112 -->
<g id="edge194" class="edge"><title>154&#45;&gt;112</title>
<path fill="none" stroke="black" d="M1016.48,-537.372C1019.52,-538.274 1022.54,-539.157 1025.48,-540 1075.65,-554.385 1133.14,-569.403 1174.45,-579.939"/>
<polygon fill="black" stroke="black" points="1184.32,-582.451 1173.52,-584.346 1179.48,-581.218 1174.63,-579.985 1174.63,-579.985 1174.63,-579.985 1179.48,-581.218 1175.74,-575.624 1184.32,-582.451 1184.32,-582.451"/>
</g>
<!-- 154&#45;&gt;150 -->
<g id="edge198" class="edge"><title>154&#45;&gt;150</title>
<path fill="none" stroke="black" d="M918.473,-536.766C913.766,-537.954 909.046,-539.057 904.478,-540 773.935,-566.965 617.409,-582.975 538.786,-589.912"/>
<polygon fill="black" stroke="black" points="528.676,-590.791 538.248,-585.441 533.657,-590.358 538.639,-589.924 538.639,-589.924 538.639,-589.924 533.657,-590.358 539.029,-594.407 528.676,-590.791 528.676,-590.791"/>
</g>
</g>
</svg>
